# Blender v3.0.0 OBJ File: '3DS Icons.blend'
# www.blender.org
mtllib Settings wrench.mtl
o Wrench_Circle.010
v -0.407850 -1.794975 0.237826
v -0.387888 -1.921007 0.237826
v -0.329957 -2.034702 0.237826
v -0.239728 -2.124932 0.237826
v -0.126033 -2.182863 0.237826
v -0.272807 1.342607 0.240970
v -0.437525 1.342607 0.240970
v -0.603300 1.198027 0.240970
v -0.775717 0.972836 0.240970
v -0.779343 0.173830 0.240970
v -0.605475 -0.033363 0.240970
v -0.403753 -0.196963 0.237826
v -0.073221 -1.558889 0.244979
v -0.139276 -1.592546 0.244979
v -0.191696 -1.644966 0.244979
v -0.225352 -1.711020 0.244979
v -0.236950 -1.784242 0.244979
v -0.225352 -1.857463 0.244979
v -0.191696 -1.923517 0.244979
v -0.139276 -1.975938 0.244979
v -0.073221 -2.009594 0.244979
v -0.272807 0.599526 0.240970
v -0.862905 0.710029 0.240970
v -0.861903 0.453233 0.240970
v -0.407850 -1.794975 -0.238315
v -0.387888 -1.921007 -0.238315
v -0.329957 -2.034702 -0.238315
v -0.239728 -2.124932 -0.238315
v -0.126033 -2.182863 -0.238315
v -0.272807 1.342607 -0.241459
v -0.437525 1.342607 -0.241459
v -0.603300 1.198027 -0.241459
v -0.775717 0.972836 -0.241459
v -0.779343 0.173830 -0.241459
v -0.605475 -0.033363 -0.241459
v -0.403753 -0.196963 -0.238315
v -0.073221 -1.558889 -0.245468
v -0.139276 -1.592546 -0.245468
v -0.191696 -1.644966 -0.245468
v -0.225352 -1.711020 -0.245468
v -0.236950 -1.784242 -0.245468
v -0.225352 -1.857463 -0.245468
v -0.191696 -1.923517 -0.245468
v -0.139276 -1.975938 -0.245468
v -0.073221 -2.009594 -0.245468
v -0.272807 0.599526 -0.241459
v -0.862905 0.710029 -0.241459
v -0.861903 0.453233 -0.241459
v 0.407850 -1.794975 0.237826
v 0.387888 -1.921007 0.237826
v 0.329957 -2.034702 0.237826
v 0.239728 -2.124932 0.237826
v 0.126033 -2.182863 0.237826
v -0.000000 -2.202824 0.237826
v 0.000000 -1.547292 0.244979
v 0.272807 1.342607 0.240970
v 0.437525 1.342607 0.240970
v 0.603300 1.198027 0.240970
v 0.775717 0.972836 0.240970
v 0.779343 0.173830 0.240970
v 0.605475 -0.033363 0.240970
v 0.403753 -0.196963 0.237826
v 0.073221 -1.558889 0.244979
v 0.139276 -1.592546 0.244979
v 0.191696 -1.644966 0.244979
v 0.225352 -1.711020 0.244979
v 0.236950 -1.784242 0.244979
v 0.225352 -1.857463 0.244979
v 0.191696 -1.923517 0.244979
v 0.139276 -1.975938 0.244979
v 0.073221 -2.009594 0.244979
v 0.000000 -2.021191 0.244979
v 0.272807 0.599526 0.240970
v 0.862905 0.710029 0.240970
v 0.861903 0.453233 0.240970
v 0.407850 -1.794975 -0.238315
v 0.387888 -1.921007 -0.238315
v 0.329957 -2.034702 -0.238315
v 0.239728 -2.124932 -0.238315
v 0.126033 -2.182863 -0.238315
v -0.000000 -2.202824 -0.238315
v 0.000000 -1.547292 -0.245468
v 0.272807 1.342607 -0.241459
v 0.437525 1.342607 -0.241459
v 0.603300 1.198027 -0.241459
v 0.775717 0.972836 -0.241459
v 0.779343 0.173830 -0.241459
v 0.605475 -0.033363 -0.241459
v 0.403753 -0.196963 -0.238315
v 0.073221 -1.558889 -0.245468
v 0.139276 -1.592546 -0.245468
v 0.191696 -1.644966 -0.245468
v 0.225352 -1.711020 -0.245468
v 0.236950 -1.784242 -0.245468
v 0.225352 -1.857463 -0.245468
v 0.191696 -1.923517 -0.245468
v 0.139276 -1.975938 -0.245468
v 0.073221 -2.009594 -0.245468
v 0.000000 -2.021191 -0.245468
v 0.272807 0.599526 -0.241459
v 0.862905 0.710029 -0.241459
v 0.861903 0.453233 -0.241459
v -0.407850 -1.794975 0.237826
v -0.387888 -1.921007 0.237826
v -0.329957 -2.034702 0.237826
v -0.239728 -2.124932 0.237826
v -0.126033 -2.182863 0.237826
v -0.272807 1.342607 0.240970
v -0.437525 1.342607 0.240970
v -0.603300 1.198027 0.240970
v -0.775717 0.972836 0.240970
v -0.779343 0.173830 0.240970
v -0.605475 -0.033363 0.240970
v -0.403753 -0.196963 0.237826
v -0.073221 -1.558889 0.244979
v -0.139276 -1.592546 0.244979
v -0.191696 -1.644966 0.244979
v -0.225352 -1.711020 0.244979
v -0.236950 -1.784242 0.244979
v -0.225352 -1.857463 0.244979
v -0.191696 -1.923517 0.244979
v -0.139276 -1.975938 0.244979
v -0.073221 -2.009594 0.244979
v -0.272807 0.599526 0.240970
v -0.862905 0.710029 0.240970
v -0.861903 0.453233 0.240970
v -0.044719 -1.646609 0.151554
v -0.085061 -1.667165 0.151554
v -0.117077 -1.699180 0.151554
v -0.137632 -1.739522 0.151554
v -0.144715 -1.784242 0.151554
v -0.137632 -1.828961 0.151554
v -0.117077 -1.869303 0.151554
v -0.085061 -1.901319 0.151554
v -0.044719 -1.921874 0.151554
v -0.489420 -1.793931 0.158707
v -0.465466 -1.945170 0.158707
v -0.395949 -2.081605 0.158707
v -0.287674 -2.189880 0.158707
v -0.151239 -2.259397 0.158707
v -0.171219 1.436376 0.155563
v -0.452511 1.427312 0.155563
v -0.660506 1.281011 0.155563
v -0.846255 1.047041 0.155563
v -0.895931 0.173640 0.155563
v -0.705419 -0.068948 0.155563
v -0.484503 -0.233194 0.158707
v -0.171219 0.681898 0.155563
v -0.959945 0.743759 0.155563
v -0.970830 0.454534 0.155563
v -0.407850 -1.794975 -0.238315
v -0.387888 -1.921007 -0.238315
v -0.329957 -2.034702 -0.238315
v -0.239728 -2.124932 -0.238315
v -0.126033 -2.182863 -0.238315
v -0.272807 1.342607 -0.241459
v -0.437525 1.342607 -0.241459
v -0.603300 1.198027 -0.241459
v -0.775717 0.972836 -0.241459
v -0.779343 0.173830 -0.241459
v -0.605475 -0.033363 -0.241459
v -0.403753 -0.196963 -0.238315
v -0.073221 -1.558889 -0.245468
v -0.139276 -1.592546 -0.245468
v -0.191696 -1.644966 -0.245468
v -0.225352 -1.711020 -0.245468
v -0.236950 -1.784242 -0.245468
v -0.225352 -1.857463 -0.245468
v -0.191696 -1.923517 -0.245468
v -0.139276 -1.975938 -0.245468
v -0.073221 -2.009594 -0.245468
v -0.272807 0.599526 -0.241459
v -0.862905 0.710029 -0.241459
v -0.861903 0.453233 -0.241459
v -0.044719 -1.646610 -0.152043
v -0.085061 -1.667165 -0.152043
v -0.117077 -1.699180 -0.152043
v -0.137632 -1.739522 -0.152043
v -0.144715 -1.784242 -0.152043
v -0.137632 -1.828961 -0.152043
v -0.117077 -1.869303 -0.152043
v -0.085061 -1.901319 -0.152043
v -0.044719 -1.921874 -0.152043
v -0.489420 -1.793931 -0.159196
v -0.465466 -1.945170 -0.159196
v -0.395949 -2.081605 -0.159196
v -0.287674 -2.189880 -0.159196
v -0.151239 -2.259397 -0.159196
v -0.171219 1.436376 -0.156052
v -0.452511 1.427312 -0.156052
v -0.660506 1.281011 -0.156052
v -0.846255 1.047041 -0.156052
v -0.895931 0.173640 -0.156052
v -0.705419 -0.068948 -0.156052
v -0.484503 -0.233194 -0.159196
v -0.171219 0.681898 -0.156052
v -0.959945 0.743759 -0.156052
v -0.970830 0.454534 -0.156052
v 0.407850 -1.794975 0.237826
v 0.387888 -1.921007 0.237826
v 0.329957 -2.034702 0.237826
v 0.239728 -2.124932 0.237826
v 0.126033 -2.182863 0.237826
v -0.000000 -2.202824 0.237826
v 0.000000 -1.547292 0.244979
v 0.272807 1.342607 0.240970
v 0.437525 1.342607 0.240970
v 0.603300 1.198027 0.240970
v 0.775717 0.972836 0.240970
v 0.779343 0.173830 0.240970
v 0.605475 -0.033363 0.240970
v 0.403753 -0.196963 0.237826
v 0.073221 -1.558889 0.244979
v 0.139276 -1.592546 0.244979
v 0.191696 -1.644966 0.244979
v 0.225352 -1.711020 0.244979
v 0.236950 -1.784242 0.244979
v 0.225352 -1.857463 0.244979
v 0.191696 -1.923517 0.244979
v 0.139276 -1.975938 0.244979
v 0.073221 -2.009594 0.244979
v 0.000000 -2.021191 0.244979
v 0.272807 0.599526 0.240970
v 0.862905 0.710029 0.240970
v 0.861903 0.453233 0.240970
v 0.000000 -1.639526 0.151554
v 0.044719 -1.646609 0.151554
v 0.085061 -1.667165 0.151554
v 0.117077 -1.699180 0.151554
v 0.137632 -1.739522 0.151554
v 0.144715 -1.784242 0.151554
v 0.137632 -1.828961 0.151554
v 0.117077 -1.869303 0.151554
v 0.085061 -1.901319 0.151554
v 0.044719 -1.921874 0.151554
v 0.000000 -1.928957 0.151554
v 0.489420 -1.793931 0.158707
v 0.465466 -1.945170 0.158707
v 0.395949 -2.081605 0.158707
v 0.287674 -2.189880 0.158707
v 0.151239 -2.259397 0.158707
v -0.000000 -2.283351 0.158707
v 0.171219 1.436376 0.155563
v 0.452511 1.427312 0.155563
v 0.660506 1.281011 0.155563
v 0.846255 1.047041 0.155563
v 0.895931 0.173640 0.155563
v 0.705419 -0.068948 0.155563
v 0.484503 -0.233194 0.158707
v 0.171219 0.681898 0.155563
v 0.959945 0.743759 0.155563
v 0.970830 0.454534 0.155563
v 0.407850 -1.794975 -0.238315
v 0.387888 -1.921007 -0.238315
v 0.329957 -2.034702 -0.238315
v 0.239728 -2.124932 -0.238315
v 0.126033 -2.182863 -0.238315
v -0.000000 -2.202824 -0.238315
v 0.000000 -1.547292 -0.245468
v 0.272807 1.342607 -0.241459
v 0.437525 1.342607 -0.241459
v 0.603300 1.198027 -0.241459
v 0.775717 0.972836 -0.241459
v 0.779343 0.173830 -0.241459
v 0.605475 -0.033363 -0.241459
v 0.403753 -0.196963 -0.238315
v 0.073221 -1.558889 -0.245468
v 0.139276 -1.592546 -0.245468
v 0.191696 -1.644966 -0.245468
v 0.225352 -1.711020 -0.245468
v 0.236950 -1.784242 -0.245468
v 0.225352 -1.857463 -0.245468
v 0.191696 -1.923517 -0.245468
v 0.139276 -1.975938 -0.245468
v 0.073221 -2.009594 -0.245468
v 0.000000 -2.021191 -0.245468
v 0.272807 0.599526 -0.241459
v 0.862905 0.710029 -0.241459
v 0.861903 0.453233 -0.241459
v 0.000000 -1.639526 -0.152043
v 0.044719 -1.646610 -0.152043
v 0.085061 -1.667165 -0.152043
v 0.117077 -1.699180 -0.152043
v 0.137632 -1.739522 -0.152043
v 0.144715 -1.784242 -0.152043
v 0.137632 -1.828961 -0.152043
v 0.117077 -1.869303 -0.152043
v 0.085061 -1.901319 -0.152043
v 0.044719 -1.921874 -0.152043
v 0.000000 -1.928957 -0.152043
v 0.489420 -1.793931 -0.159196
v 0.465466 -1.945170 -0.159196
v 0.395949 -2.081605 -0.159196
v 0.287674 -2.189880 -0.159196
v 0.151239 -2.259397 -0.159196
v -0.000000 -2.283351 -0.159196
v 0.171219 1.436376 -0.156052
v 0.452511 1.427312 -0.156052
v 0.660506 1.281011 -0.156052
v 0.846255 1.047041 -0.156052
v 0.895931 0.173640 -0.156052
v 0.705419 -0.068948 -0.156052
v 0.484503 -0.233194 -0.159196
v 0.171219 0.681898 -0.156052
v 0.959945 0.743759 -0.156052
v 0.970830 0.454534 -0.156052
vt 0.000000 0.000000
vt 0.000000 0.000000
vt 0.000000 0.000000
vt 0.000000 0.000000
vt 0.000000 0.000000
vt 0.000000 0.000000
vt 0.000000 0.000000
vt 0.000000 0.000000
vt 0.000000 0.000000
vt 0.000000 0.000000
vt 0.000000 0.000000
vt 0.000000 0.000000
vt 0.000000 0.000000
vt 0.000000 0.000000
vt 0.000000 0.000000
vt 0.000000 0.000000
vt 0.000000 0.000000
vt 0.000000 0.000000
vt 0.000000 0.000000
vt 0.000000 0.000000
vt 0.000000 0.000000
vt 0.000000 0.000000
vt 0.000000 0.000000
vt 0.000000 0.000000
vt 0.000000 0.000000
vt 0.000000 0.000000
vt 0.000000 0.000000
vt 0.000000 0.000000
vt 0.000000 0.000000
vt 0.000000 0.000000
vt 0.000000 0.000000
vt 0.000000 0.000000
vt 0.000000 0.000000
vt 0.000000 0.000000
vt 0.000000 0.000000
vt 0.000000 0.000000
vt 0.000000 0.000000
vt 0.000000 0.000000
vt 0.000000 0.000000
vt 0.000000 0.000000
vt 0.000000 0.000000
vt 0.000000 0.000000
vt 0.000000 0.000000
vt 0.000000 0.000000
vt 0.000000 0.000000
vt 0.000000 0.000000
vt 0.000000 0.000000
vt 0.000000 0.000000
vt 0.000000 0.000000
vt 0.000000 0.000000
vt 0.000000 0.000000
vt 0.000000 0.000000
vt 0.000000 0.000000
vt 0.000000 0.000000
vt 0.000000 0.000000
vt 0.000000 0.000000
vt 0.000000 0.000000
vt 0.000000 0.000000
vt 0.000000 0.000000
vt 0.000000 0.000000
vt 0.000000 0.000000
vt 0.000000 0.000000
vt 0.000000 0.000000
vt 0.000000 0.000000
vt 0.000000 0.000000
vt 0.000000 0.000000
vt 0.000000 0.000000
vt 0.000000 0.000000
vt 0.000000 0.000000
vt 0.000000 0.000000
vt 0.000000 0.000000
vt 0.000000 0.000000
vt 0.000000 0.000000
vt 0.000000 0.000000
vt 0.000000 0.000000
vt 0.000000 0.000000
vt 0.000000 0.000000
vt 0.000000 0.000000
vt 0.000000 0.000000
vt 0.000000 0.000000
vt 0.000000 0.000000
vt 0.000000 0.000000
vt 0.000000 0.000000
vt 0.000000 0.000000
vt 0.000000 0.000000
vt 0.000000 0.000000
vt 0.000000 0.000000
vt 0.000000 0.000000
vt 0.000000 0.000000
vt 0.000000 0.000000
vt 0.000000 0.000000
vt 0.000000 0.000000
vt 0.000000 0.000000
vt 0.000000 0.000000
vt 0.000000 0.000000
vt 0.000000 0.000000
vt 0.000000 0.000000
vt 0.000000 0.000000
vt 0.000000 0.000000
vt 0.000000 0.000000
vt 0.000000 0.000000
vt 0.000000 0.000000
vt 0.000000 0.000000
vt 0.000000 0.000000
vt 0.000000 0.000000
vt 0.000000 0.000000
vt 0.000000 0.000000
vt 0.000000 0.000000
vt 0.000000 0.000000
vt 0.000000 0.000000
vt 0.000000 0.000000
vt 0.000000 0.000000
vt 0.000000 0.000000
vt 0.000000 0.000000
vt 0.000000 0.000000
vt 0.000000 0.000000
vt 0.000000 0.000000
vt 0.000000 0.000000
vt 0.000000 0.000000
vt 0.000000 0.000000
vt 0.000000 0.000000
vt 0.000000 0.000000
vt 0.000000 0.000000
vt 0.000000 0.000000
vt 0.000000 0.000000
vt 0.000000 0.000000
vt 0.000000 0.000000
vt 0.000000 0.000000
vt 0.000000 0.000000
vt 0.000000 0.000000
vt 0.000000 0.000000
vt 0.000000 0.000000
vt 0.000000 0.000000
vt 0.000000 0.000000
vt 0.000000 0.000000
vt 0.000000 0.000000
vt 0.000000 0.000000
vt 0.000000 0.000000
vt 0.000000 0.000000
vt 0.000000 0.000000
vt 0.000000 0.000000
vt 0.000000 0.000000
vt 0.000000 0.000000
vt 0.000000 0.000000
vt 0.000000 0.000000
vt 0.000000 0.000000
vt 0.000000 0.000000
vt 0.000000 0.000000
vt 0.000000 0.000000
vt 0.000000 0.000000
vt 0.000000 0.000000
vt 0.000000 0.000000
vt 0.000000 0.000000
vt 0.000000 0.000000
vt 0.000000 0.000000
vt 0.000000 0.000000
vt 0.000000 0.000000
vt 0.000000 0.000000
vt 0.000000 0.000000
vt 0.000000 0.000000
vt 0.000000 0.000000
vt 0.000000 0.000000
vt 0.000000 0.000000
vt 0.000000 0.000000
vt 0.000000 0.000000
vt 0.000000 0.000000
vt 0.000000 0.000000
vt 0.000000 0.000000
vt 0.000000 0.000000
vt 0.000000 0.000000
vt 0.000000 0.000000
vt 0.000000 0.000000
vt 0.000000 0.000000
vt 0.000000 0.000000
vt 0.000000 0.000000
vt 0.000000 0.000000
vt 0.000000 0.000000
vt 0.000000 0.000000
vt 0.000000 0.000000
vt 0.000000 0.000000
vt 0.000000 0.000000
vt 0.000000 0.000000
vt 0.000000 0.000000
vt 0.000000 0.000000
vt 0.000000 0.000000
vt 0.000000 0.000000
vt 0.000000 0.000000
vt 0.000000 0.000000
vt 0.000000 0.000000
vt 0.000000 0.000000
vt 0.000000 0.000000
vt 0.000000 0.000000
vt 0.000000 0.000000
vt 0.000000 0.000000
vt 0.000000 0.000000
vt 0.000000 0.000000
vt 0.000000 0.000000
vt 0.000000 0.000000
vt 0.000000 0.000000
vt 0.000000 0.000000
vt 0.000000 0.000000
vt 0.000000 0.000000
vt 0.000000 0.000000
vt 0.000000 0.000000
vt 0.000000 0.000000
vt 0.000000 0.000000
vt 0.000000 0.000000
vt 0.000000 0.000000
vt 0.000000 0.000000
vt 0.000000 0.000000
vt 0.000000 0.000000
vt 0.000000 0.000000
vt 0.000000 0.000000
vt 0.000000 0.000000
vt 0.000000 0.000000
vt 0.000000 0.000000
vt 0.000000 0.000000
vt 0.000000 0.000000
vt 0.000000 0.000000
vt 0.000000 0.000000
vt 0.000000 0.000000
vt 0.000000 0.000000
vt 0.000000 0.000000
vt 0.000000 0.000000
vt 0.000000 0.000000
vt 0.000000 0.000000
vt 0.000000 0.000000
vt 0.000000 0.000000
vt 0.000000 0.000000
vt 0.000000 0.000000
vt 0.000000 0.000000
vt 0.000000 0.000000
vt 0.000000 0.000000
vt 0.000000 0.000000
vt 0.000000 0.000000
vt 0.000000 0.000000
vt 0.000000 0.000000
vt 0.000000 0.000000
vt 0.000000 0.000000
vt 0.000000 0.000000
vt 0.000000 0.000000
vt 0.000000 0.000000
vt 0.000000 0.000000
vt 0.000000 0.000000
vt 0.000000 0.000000
vt 0.000000 0.000000
vt 0.000000 0.000000
vt 0.000000 0.000000
vt 0.000000 0.000000
vt 0.000000 0.000000
vt 0.000000 0.000000
vt 0.000000 0.000000
vt 0.000000 0.000000
vt 0.000000 0.000000
vt 0.000000 0.000000
vt 0.000000 0.000000
vt 0.000000 0.000000
vt 0.000000 0.000000
vt 0.000000 0.000000
vt 0.000000 0.000000
vt 0.000000 0.000000
vt 0.000000 0.000000
vt 0.000000 0.000000
vt 0.000000 0.000000
vt 0.000000 0.000000
vt 0.000000 0.000000
vt 0.000000 0.000000
vt 0.000000 0.000000
vt 0.000000 0.000000
vt 0.000000 0.000000
vt 0.000000 0.000000
vt 0.000000 0.000000
vt 0.000000 0.000000
vt 0.000000 0.000000
vt 0.000000 0.000000
vt 0.000000 0.000000
vt 0.000000 0.000000
vt 0.000000 0.000000
vt 0.000000 0.000000
vt 0.000000 0.000000
vt 0.000000 0.000000
vt 0.000000 0.000000
vt 0.000000 0.000000
vt 0.000000 0.000000
vt 0.000000 0.000000
vt 0.000000 0.000000
vt 0.000000 0.000000
vt 0.000000 0.000000
vt 0.000000 0.000000
vt 0.000000 0.000000
vt 0.000000 0.000000
vt 0.000000 0.000000
vt 0.000000 0.000000
vt 0.000000 0.000000
vt 0.000000 0.000000
vt 0.000000 0.000000
vt 0.000000 0.000000
vt 0.000000 0.000000
vt 0.000000 0.000000
vt 0.000000 0.000000
vt 0.000000 0.000000
vt 0.000000 0.000000
vt 0.000000 0.000000
vt 0.000000 0.000000
vt 0.000000 0.000000
vt 0.000000 0.000000
vn -0.0418 0.0003 0.9991
vn -0.0486 0.0205 0.9986
vn -0.0394 -0.0009 0.9992
vn -0.0389 -0.0128 0.9991
vn -0.0391 -0.0124 0.9991
vn -0.0325 -0.0238 0.9992
vn -0.0327 -0.0235 0.9992
vn -0.0233 -0.0323 0.9992
vn -0.0235 -0.0321 0.9992
vn -0.0121 -0.0375 0.9992
vn -0.0123 -0.0375 0.9992
vn 0.0000 -0.0393 0.9992
vn 0.0015 -0.0010 1.0000
vn -0.0036 0.0044 1.0000
vn -0.0016 0.0049 1.0000
vn 0.0007 -0.0018 1.0000
vn 0.0000 0.0000 1.0000
vn 0.0065 -0.0034 1.0000
vn -0.0279 0.0049 0.9996
vn 0.0000 0.0051 1.0000
vn -0.0418 0.0003 -0.9991
vn -0.0394 -0.0009 -0.9992
vn -0.0486 0.0205 -0.9986
vn -0.0391 -0.0124 -0.9991
vn -0.0389 -0.0128 -0.9991
vn -0.0327 -0.0235 -0.9992
vn -0.0325 -0.0238 -0.9992
vn -0.0235 -0.0321 -0.9992
vn -0.0233 -0.0323 -0.9992
vn -0.0123 -0.0375 -0.9992
vn -0.0121 -0.0375 -0.9992
vn 0.0000 -0.0393 -0.9992
vn 0.0015 -0.0010 -1.0000
vn -0.0016 0.0049 -1.0000
vn -0.0036 0.0044 -1.0000
vn 0.0007 -0.0018 -1.0000
vn 0.0000 0.0000 -1.0000
vn 0.0065 -0.0034 -1.0000
vn -0.0279 0.0049 -0.9996
vn 0.0000 0.0051 -1.0000
vn 0.0418 0.0003 0.9991
vn 0.0394 -0.0009 0.9992
vn 0.0486 0.0205 0.9986
vn 0.0391 -0.0124 0.9991
vn 0.0389 -0.0128 0.9991
vn 0.0327 -0.0235 0.9992
vn 0.0325 -0.0238 0.9992
vn 0.0235 -0.0321 0.9992
vn 0.0233 -0.0323 0.9992
vn 0.0123 -0.0375 0.9992
vn 0.0121 -0.0375 0.9992
vn -0.0015 -0.0010 1.0000
vn 0.0016 0.0049 1.0000
vn 0.0036 0.0044 1.0000
vn -0.0007 -0.0018 1.0000
vn -0.0065 -0.0034 1.0000
vn 0.0279 0.0049 0.9996
vn 0.0418 0.0003 -0.9991
vn 0.0486 0.0205 -0.9986
vn 0.0394 -0.0009 -0.9992
vn 0.0389 -0.0128 -0.9991
vn 0.0391 -0.0124 -0.9991
vn 0.0325 -0.0238 -0.9992
vn 0.0327 -0.0235 -0.9992
vn 0.0233 -0.0323 -0.9992
vn 0.0235 -0.0321 -0.9992
vn 0.0121 -0.0375 -0.9992
vn 0.0123 -0.0375 -0.9992
vn -0.0015 -0.0010 -1.0000
vn 0.0036 0.0044 -1.0000
vn 0.0016 0.0049 -1.0000
vn -0.0007 -0.0018 -1.0000
vn -0.0065 -0.0034 -1.0000
vn 0.0279 0.0049 -0.9996
vn 0.4183 0.5757 0.7025
vn 0.2199 0.6768 0.7025
vn 0.2840 0.8742 0.3937
vn 0.2199 -0.6768 0.7025
vn 0.2840 -0.8742 0.3937
vn 0.0000 -0.9192 0.3937
vn 0.0000 0.7116 0.7025
vn 0.0000 0.9192 0.3937
vn 0.4183 -0.5757 0.7025
vn 0.5757 -0.4183 0.7025
vn 0.7437 -0.5403 0.3937
vn 0.6768 -0.2199 0.7025
vn 0.8742 -0.2840 0.3937
vn 0.7116 0.0000 0.7025
vn 0.9192 0.0000 0.3937
vn 0.6768 0.2199 0.7025
vn 0.8742 0.2840 0.3937
vn 0.5757 0.4183 0.7025
vn 0.7437 0.5403 0.3937
vn 0.5403 -0.7437 0.3937
vn 0.5403 0.7437 0.3937
vn 0.3521 0.3998 0.8463
vn 0.5434 0.5937 0.5934
vn 0.6367 0.6525 0.4109
vn -0.6304 0.1025 0.7695
vn -0.9030 -0.1029 0.4170
vn -0.6112 -0.0901 0.7863
vn -0.2871 0.8865 0.3627
vn -0.2339 0.6529 0.7204
vn -0.6371 0.6624 0.3940
vn -0.4774 0.4449 0.7577
vn -0.5825 0.3009 0.7550
vn -0.8973 0.1788 0.4035
vn -0.7959 0.4557 0.3985
vn -0.8210 -0.3984 0.4089
vn -0.5528 -0.3265 0.7667
vn -0.6956 -0.0561 0.7162
vn -0.9215 -0.0699 0.3819
vn -0.8815 -0.2861 0.3756
vn -0.6633 -0.2162 0.7164
vn -0.7502 -0.5447 0.3748
vn -0.5651 -0.4113 0.7152
vn -0.5452 -0.7501 0.3742
vn -0.6463 -0.6542 0.3929
vn -0.4556 -0.5011 0.7357
vn -0.4111 -0.5665 0.7142
vn -0.2867 -0.8821 0.3738
vn -0.7931 -0.3952 0.4634
vn -0.6007 -0.2889 0.7454
vn -0.2163 -0.6664 0.7135
vn 0.0000 -0.9275 0.3736
vn 0.0000 -0.7116 0.7025
vn 0.3972 0.3775 0.8365
vn 0.0000 -0.7008 0.7133
vn 0.4183 0.5757 -0.7025
vn 0.2840 0.8742 -0.3937
vn 0.2199 0.6768 -0.7025
vn 0.2199 -0.6768 -0.7025
vn 0.0000 -0.9192 -0.3937
vn 0.2840 -0.8742 -0.3937
vn 0.0000 0.7116 -0.7025
vn 0.0000 0.9192 -0.3937
vn 0.4183 -0.5757 -0.7025
vn 0.7437 -0.5403 -0.3937
vn 0.5757 -0.4183 -0.7025
vn 0.6768 -0.2199 -0.7025
vn 0.8742 -0.2840 -0.3937
vn 0.7116 0.0000 -0.7025
vn 0.9192 0.0000 -0.3937
vn 0.8742 0.2840 -0.3937
vn 0.6768 0.2199 -0.7025
vn 0.7437 0.5403 -0.3937
vn 0.5757 0.4183 -0.7025
vn 0.5403 -0.7437 -0.3937
vn 0.5403 0.7437 -0.3937
vn 0.3521 0.3998 -0.8463
vn 0.6367 0.6525 -0.4109
vn 0.5434 0.5937 -0.5934
vn -0.6304 0.1025 -0.7695
vn -0.6112 -0.0901 -0.7863
vn -0.9030 -0.1029 -0.4170
vn -0.2339 0.6529 -0.7204
vn -0.2871 0.8865 -0.3627
vn -0.4774 0.4449 -0.7577
vn -0.6371 0.6624 -0.3940
vn -0.5825 0.3009 -0.7550
vn -0.8973 0.1788 -0.4035
vn -0.7959 0.4557 -0.3985
vn -0.5528 -0.3265 -0.7667
vn -0.8210 -0.3984 -0.4089
vn -0.6956 -0.0561 -0.7162
vn -0.8815 -0.2861 -0.3756
vn -0.9215 -0.0699 -0.3819
vn -0.6633 -0.2162 -0.7164
vn -0.7502 -0.5447 -0.3748
vn -0.5651 -0.4113 -0.7152
vn -0.5452 -0.7501 -0.3742
vn -0.4556 -0.5011 -0.7357
vn -0.6463 -0.6542 -0.3929
vn -0.4111 -0.5665 -0.7142
vn -0.2867 -0.8821 -0.3738
vn -0.6007 -0.2889 -0.7454
vn -0.7931 -0.3952 -0.4634
vn -0.2163 -0.6664 -0.7135
vn 0.0000 -0.9275 -0.3736
vn 0.0000 -0.7116 -0.7025
vn 0.3972 0.3775 -0.8365
vn 0.0000 -0.7008 -0.7133
vn -0.4183 0.5757 0.7025
vn -0.2840 0.8742 0.3937
vn -0.2199 0.6768 0.7025
vn -0.2199 -0.6768 0.7025
vn -0.2840 -0.8742 0.3937
vn -0.4183 -0.5757 0.7025
vn -0.7437 -0.5403 0.3937
vn -0.5757 -0.4183 0.7025
vn -0.6768 -0.2199 0.7025
vn -0.8742 -0.2840 0.3937
vn -0.7116 0.0000 0.7025
vn -0.9192 0.0000 0.3937
vn -0.8742 0.2840 0.3937
vn -0.6768 0.2199 0.7025
vn -0.7437 0.5403 0.3937
vn -0.5757 0.4183 0.7025
vn -0.5403 -0.7437 0.3937
vn -0.5403 0.7437 0.3937
vn -0.3521 0.3998 0.8463
vn -0.6367 0.6525 0.4109
vn -0.5434 0.5937 0.5934
vn 0.6304 0.1025 0.7695
vn 0.6112 -0.0901 0.7863
vn 0.9030 -0.1029 0.4170
vn 0.2339 0.6529 0.7204
vn 0.2871 0.8865 0.3627
vn 0.4774 0.4449 0.7577
vn 0.6371 0.6624 0.3940
vn 0.5825 0.3009 0.7550
vn 0.8973 0.1788 0.4035
vn 0.7959 0.4557 0.3985
vn 0.5528 -0.3265 0.7667
vn 0.8210 -0.3984 0.4089
vn 0.6956 -0.0561 0.7162
vn 0.8815 -0.2861 0.3756
vn 0.9215 -0.0699 0.3819
vn 0.6633 -0.2162 0.7164
vn 0.7502 -0.5447 0.3748
vn 0.5651 -0.4113 0.7152
vn 0.5452 -0.7501 0.3742
vn 0.4556 -0.5011 0.7357
vn 0.6463 -0.6542 0.3929
vn 0.4111 -0.5665 0.7142
vn 0.2867 -0.8821 0.3738
vn 0.6007 -0.2889 0.7454
vn 0.7931 -0.3952 0.4634
vn 0.2163 -0.6664 0.7135
vn -0.3972 0.3775 0.8365
vn -0.4183 0.5757 -0.7025
vn -0.2199 0.6768 -0.7025
vn -0.2840 0.8742 -0.3937
vn -0.2199 -0.6768 -0.7025
vn -0.2840 -0.8742 -0.3937
vn -0.4183 -0.5757 -0.7025
vn -0.5757 -0.4183 -0.7025
vn -0.7437 -0.5403 -0.3937
vn -0.6768 -0.2199 -0.7025
vn -0.8742 -0.2840 -0.3937
vn -0.7116 0.0000 -0.7025
vn -0.9192 0.0000 -0.3937
vn -0.6768 0.2199 -0.7025
vn -0.8742 0.2840 -0.3937
vn -0.5757 0.4183 -0.7025
vn -0.7437 0.5403 -0.3937
vn -0.5403 -0.7437 -0.3937
vn -0.5403 0.7437 -0.3937
vn -0.3521 0.3998 -0.8463
vn -0.5434 0.5937 -0.5934
vn -0.6367 0.6525 -0.4109
vn 0.6304 0.1025 -0.7695
vn 0.9030 -0.1029 -0.4170
vn 0.6112 -0.0901 -0.7863
vn 0.2871 0.8865 -0.3627
vn 0.2339 0.6529 -0.7204
vn 0.6371 0.6624 -0.3940
vn 0.4774 0.4449 -0.7577
vn 0.5825 0.3009 -0.7550
vn 0.8973 0.1788 -0.4035
vn 0.7959 0.4557 -0.3985
vn 0.8210 -0.3984 -0.4089
vn 0.5528 -0.3265 -0.7667
vn 0.6956 -0.0561 -0.7162
vn 0.9215 -0.0699 -0.3819
vn 0.8815 -0.2861 -0.3756
vn 0.6633 -0.2162 -0.7164
vn 0.7502 -0.5447 -0.3748
vn 0.5651 -0.4113 -0.7152
vn 0.5452 -0.7501 -0.3742
vn 0.6463 -0.6542 -0.3929
vn 0.4556 -0.5011 -0.7357
vn 0.4111 -0.5665 -0.7142
vn 0.2867 -0.8821 -0.3738
vn 0.7931 -0.3952 -0.4634
vn 0.6007 -0.2889 -0.7454
vn 0.2163 -0.6664 -0.7135
vn -0.3972 0.3775 -0.8365
usemtl Material.003
s 1
f 17/1/1 16/2/2 1/3/3
f 1/3/3 2/4/4 18/5/5
f 2/4/4 3/6/6 19/7/7
f 3/6/6 4/8/8 20/9/9
f 4/8/8 5/10/10 21/11/11
f 5/10/10 54/12/12 72/13/12
f 12/14/13 14/15/14 13/16/15
f 22/17/16 6/18/17 8/19/17
f 10/20/17 11/21/18 22/17/16
f 1/3/3 18/5/5 17/1/1
f 2/4/4 19/7/7 18/5/5
f 3/6/6 20/9/9 19/7/7
f 4/8/8 21/11/11 20/9/9
f 5/10/10 72/13/12 21/11/11
f 15/22/19 1/3/3 16/2/2
f 12/14/13 13/16/15 55/23/20
f 14/15/14 12/14/13 15/22/19
f 15/22/19 12/14/13 1/3/3
f 6/18/17 7/24/17 8/19/17
f 8/19/17 9/25/17 22/17/16
f 9/25/17 23/26/17 22/17/16
f 11/21/18 12/14/13 22/17/16
f 22/17/16 23/26/17 24/27/17
f 24/27/17 10/20/17 22/17/16
f 41/28/21 25/29/22 40/30/23
f 25/29/22 42/31/24 26/32/25
f 26/32/25 43/33/26 27/34/27
f 27/34/27 44/35/28 28/36/29
f 28/36/29 45/37/30 29/38/31
f 29/38/31 99/39/32 81/40/32
f 36/41/33 37/42/34 38/43/35
f 46/44/36 32/45/37 30/46/37
f 34/47/37 46/44/36 35/48/38
f 25/29/22 41/28/21 42/31/24
f 26/32/25 42/31/24 43/33/26
f 27/34/27 43/33/26 44/35/28
f 28/36/29 44/35/28 45/37/30
f 29/38/31 45/37/30 99/39/32
f 39/49/39 40/30/23 25/29/22
f 36/41/33 82/50/40 37/42/34
f 38/43/35 39/49/39 36/41/33
f 39/49/39 25/29/22 36/41/33
f 30/46/37 32/45/37 31/51/37
f 32/45/37 46/44/36 33/52/37
f 33/52/37 46/44/36 47/53/37
f 35/48/38 46/44/36 36/41/33
f 46/44/36 48/54/37 47/53/37
f 48/54/37 46/44/36 34/47/37
f 67/55/41 49/56/42 66/57/43
f 49/56/42 68/58/44 50/59/45
f 50/59/45 69/60/46 51/61/47
f 51/61/47 70/62/48 52/63/49
f 52/63/49 71/64/50 53/65/51
f 53/65/51 72/13/12 54/12/12
f 62/66/52 63/67/53 64/68/54
f 73/69/55 58/70/17 56/71/17
f 60/72/17 73/69/55 61/73/56
f 49/56/42 67/55/41 68/58/44
f 50/59/45 68/58/44 69/60/46
f 51/61/47 69/60/46 70/62/48
f 52/63/49 70/62/48 71/64/50
f 53/65/51 71/64/50 72/13/12
f 65/74/57 66/57/43 49/56/42
f 62/66/52 55/23/20 63/67/53
f 64/68/54 65/74/57 62/66/52
f 65/74/57 49/56/42 62/66/52
f 56/71/17 58/70/17 57/75/17
f 58/70/17 73/69/55 59/76/17
f 59/76/17 73/69/55 74/77/17
f 61/73/56 73/69/55 62/66/52
f 73/69/55 75/78/17 74/77/17
f 75/78/17 73/69/55 60/72/17
f 94/79/58 93/80/59 76/81/60
f 76/81/60 77/82/61 95/83/62
f 77/82/61 78/84/63 96/85/64
f 78/84/63 79/86/65 97/87/66
f 79/86/65 80/88/67 98/89/68
f 80/88/67 81/40/32 99/39/32
f 89/90/69 91/91/70 90/92/71
f 100/93/72 83/94/37 85/95/37
f 87/96/37 88/97/73 100/93/72
f 76/81/60 95/83/62 94/79/58
f 77/82/61 96/85/64 95/83/62
f 78/84/63 97/87/66 96/85/64
f 79/86/65 98/89/68 97/87/66
f 80/88/67 99/39/32 98/89/68
f 92/98/74 76/81/60 93/80/59
f 89/90/69 90/92/71 82/50/40
f 91/91/70 89/90/69 92/98/74
f 92/98/74 89/90/69 76/81/60
f 83/94/37 84/99/37 85/95/37
f 85/95/37 86/100/37 100/93/72
f 86/100/37 101/101/37 100/93/72
f 88/97/73 89/90/69 100/93/72
f 100/93/72 101/101/37 102/102/37
f 102/102/37 87/96/37 100/93/72
f 46/44/36 89/90/69 36/41/33
f 62/66/52 22/17/16 12/14/13
f 62/66/52 12/14/13 55/23/20
f 89/90/69 82/50/40 36/41/33
f 46/44/36 100/93/72 89/90/69
f 62/66/52 73/69/55 22/17/16
f 122/103/75 123/104/76 135/105/77
f 115/106/78 127/107/79 226/108/80
f 222/109/81 236/110/82 135/105/77
f 116/111/83 117/112/84 129/113/85
f 118/114/86 130/115/87 129/113/85
f 119/116/88 131/117/89 130/115/87
f 119/116/88 120/118/90 132/119/91
f 120/118/90 121/120/92 133/121/93
f 116/111/83 128/122/94 127/107/79
f 122/103/75 134/123/95 133/121/93
f 108/124/96 148/125/97 141/126/98
f 125/127/99 150/128/100 126/129/101
f 108/124/96 142/130/102 109/131/103
f 109/131/103 143/132/104 110/133/105
f 111/134/106 149/135/107 125/127/99
f 110/133/105 144/136/108 111/134/106
f 126/129/101 145/137/109 112/138/110
f 103/139/111 136/140/112 137/141/113
f 104/142/114 137/141/113 138/143/115
f 105/144/116 138/143/115 139/145/117
f 112/138/110 146/146/118 113/147/119
f 106/148/120 139/145/117 140/149/121
f 113/147/119 147/150/122 114/151/123
f 107/152/124 140/149/121 242/153/125
f 103/139/111 114/151/123 147/150/122
f 122/103/75 135/105/77 134/123/95
f 115/106/78 226/108/80 205/154/126
f 222/109/81 135/105/77 123/104/76
f 116/111/83 129/113/85 128/122/94
f 118/114/86 129/113/85 117/112/84
f 119/116/88 130/115/87 118/114/86
f 119/116/88 132/119/91 131/117/89
f 120/118/90 133/121/93 132/119/91
f 116/111/83 127/107/79 115/106/78
f 122/103/75 133/121/93 121/120/92
f 108/124/96 124/155/127 148/125/97
f 125/127/99 149/135/107 150/128/100
f 108/124/96 141/126/98 142/130/102
f 109/131/103 142/130/102 143/132/104
f 111/134/106 144/136/108 149/135/107
f 110/133/105 143/132/104 144/136/108
f 126/129/101 150/128/100 145/137/109
f 103/139/111 137/141/113 104/142/114
f 104/142/114 138/143/115 105/144/116
f 105/144/116 139/145/117 106/148/120
f 112/138/110 145/137/109 146/146/118
f 106/148/120 140/149/121 107/152/124
f 113/147/119 146/146/118 147/150/122
f 107/152/124 242/153/125 204/156/128
f 103/139/111 147/150/122 136/140/112
f 170/157/129 183/158/130 171/159/131
f 163/160/132 280/161/133 175/162/134
f 276/163/135 183/158/130 290/164/136
f 164/165/137 177/166/138 165/167/139
f 166/168/140 177/166/138 178/169/141
f 167/170/142 178/169/141 179/171/143
f 167/170/142 180/172/144 168/173/145
f 168/173/145 181/174/146 169/175/147
f 164/165/137 175/162/134 176/176/148
f 170/157/129 181/174/146 182/177/149
f 156/178/150 189/179/151 196/180/152
f 173/181/153 174/182/154 198/183/155
f 156/178/150 157/184/156 190/185/157
f 157/184/156 158/186/158 191/187/159
f 159/188/160 173/181/153 197/189/161
f 158/186/158 159/188/160 192/190/162
f 174/182/154 160/191/163 193/192/164
f 151/193/165 185/194/166 184/195/167
f 152/196/168 186/197/169 185/194/166
f 153/198/170 187/199/171 186/197/169
f 160/191/163 161/200/172 194/201/173
f 154/202/174 188/203/175 187/199/171
f 161/200/172 162/204/176 195/205/177
f 155/206/178 296/207/179 188/203/175
f 151/193/165 195/205/177 162/204/176
f 170/157/129 182/177/149 183/158/130
f 163/160/132 259/208/180 280/161/133
f 276/163/135 171/159/131 183/158/130
f 164/165/137 176/176/148 177/166/138
f 166/168/140 165/167/139 177/166/138
f 167/170/142 166/168/140 178/169/141
f 167/170/142 179/171/143 180/172/144
f 168/173/145 180/172/144 181/174/146
f 164/165/137 163/160/132 175/162/134
f 170/157/129 169/175/147 181/174/146
f 156/178/150 196/180/152 172/209/181
f 173/181/153 198/183/155 197/189/161
f 156/178/150 190/185/157 189/179/151
f 157/184/156 191/187/159 190/185/157
f 159/188/160 197/189/161 192/190/162
f 158/186/158 192/190/162 191/187/159
f 174/182/154 193/192/164 198/183/155
f 151/193/165 152/196/168 185/194/166
f 152/196/168 153/198/170 186/197/169
f 153/198/170 154/202/174 187/199/171
f 160/191/163 194/201/173 193/192/164
f 154/202/174 155/206/178 188/203/175
f 161/200/172 195/205/177 194/201/173
f 155/206/178 258/210/182 296/207/179
f 151/193/165 184/195/167 195/205/177
f 196/180/152 141/126/98 148/125/97
f 189/179/151 142/130/102 141/126/98
f 190/185/157 143/132/104 142/130/102
f 191/187/159 144/136/108 143/132/104
f 192/190/162 149/135/107 144/136/108
f 197/189/161 150/128/100 149/135/107
f 193/192/164 146/146/118 145/137/109
f 194/201/173 147/150/122 146/146/118
f 147/150/122 184/195/167 136/140/112
f 137/141/113 184/195/167 185/194/166
f 137/141/113 186/197/169 138/143/115
f 138/143/115 187/199/171 139/145/117
f 139/145/117 188/203/175 140/149/121
f 140/149/121 296/207/179 242/153/125
f 127/107/79 280/161/133 226/108/80
f 128/122/94 175/162/134 127/107/79
f 129/113/85 176/176/148 128/122/94
f 130/115/87 177/166/138 129/113/85
f 131/117/89 178/169/141 130/115/87
f 132/119/91 179/171/143 131/117/89
f 133/121/93 180/172/144 132/119/91
f 134/123/95 181/174/146 133/121/93
f 135/105/77 182/177/149 134/123/95
f 236/110/82 183/158/130 135/105/77
f 220/211/183 235/212/184 221/213/185
f 213/214/186 226/108/80 227/215/187
f 222/109/81 235/212/184 236/110/82
f 214/216/188 229/217/189 215/218/190
f 216/219/191 229/217/189 230/220/192
f 217/221/193 230/220/192 231/222/194
f 217/221/193 232/223/195 218/224/196
f 218/224/196 233/225/197 219/226/198
f 214/216/188 227/215/187 228/227/199
f 220/211/183 233/225/197 234/228/200
f 206/229/201 243/230/202 250/231/203
f 224/232/204 225/233/205 252/234/206
f 206/229/201 207/235/207 244/236/208
f 207/235/207 208/237/209 245/238/210
f 209/239/211 224/232/204 251/240/212
f 208/237/209 209/239/211 246/241/213
f 225/233/205 210/242/214 247/243/215
f 199/244/216 238/245/217 237/246/218
f 200/247/219 239/248/220 238/245/217
f 201/249/221 240/250/222 239/248/220
f 210/242/214 211/251/223 248/252/224
f 202/253/225 241/254/226 240/250/222
f 211/251/223 212/255/227 249/256/228
f 203/257/229 242/153/125 241/254/226
f 199/244/216 249/256/228 212/255/227
f 220/211/183 234/228/200 235/212/184
f 213/214/186 205/154/126 226/108/80
f 222/109/81 221/213/185 235/212/184
f 214/216/188 228/227/199 229/217/189
f 216/219/191 215/218/190 229/217/189
f 217/221/193 216/219/191 230/220/192
f 217/221/193 231/222/194 232/223/195
f 218/224/196 232/223/195 233/225/197
f 214/216/188 213/214/186 227/215/187
f 220/211/183 219/226/198 233/225/197
f 206/229/201 250/231/203 223/258/230
f 224/232/204 252/234/206 251/240/212
f 206/229/201 244/236/208 243/230/202
f 207/235/207 245/238/210 244/236/208
f 209/239/211 251/240/212 246/241/213
f 208/237/209 246/241/213 245/238/210
f 225/233/205 247/243/215 252/234/206
f 199/244/216 200/247/219 238/245/217
f 200/247/219 201/249/221 239/248/220
f 201/249/221 202/253/225 240/250/222
f 210/242/214 248/252/224 247/243/215
f 202/253/225 203/257/229 241/254/226
f 211/251/223 249/256/228 248/252/224
f 203/257/229 204/156/128 242/153/125
f 199/244/216 237/246/218 249/256/228
f 274/259/231 275/260/232 289/261/233
f 267/262/234 281/263/235 280/161/133
f 276/163/135 290/164/136 289/261/233
f 268/264/236 269/265/237 283/266/238
f 270/267/239 284/268/240 283/266/238
f 271/269/241 285/270/242 284/268/240
f 271/269/241 272/271/243 286/272/244
f 272/271/243 273/273/245 287/274/246
f 268/264/236 282/275/247 281/263/235
f 274/259/231 288/276/248 287/274/246
f 260/277/249 304/278/250 297/279/251
f 278/280/252 306/281/253 279/282/254
f 260/277/249 298/283/255 261/284/256
f 261/284/256 299/285/257 262/286/258
f 263/287/259 305/288/260 278/280/252
f 262/286/258 300/289/261 263/287/259
f 279/282/254 301/290/262 264/291/263
f 253/292/264 291/293/265 292/294/266
f 254/295/267 292/294/266 293/296/268
f 255/297/269 293/296/268 294/298/270
f 264/291/263 302/299/271 265/300/272
f 256/301/273 294/298/270 295/302/274
f 265/300/272 303/303/275 266/304/276
f 257/305/277 295/302/274 296/207/179
f 253/292/264 266/304/276 303/303/275
f 274/259/231 289/261/233 288/276/248
f 267/262/234 280/161/133 259/208/180
f 276/163/135 289/261/233 275/260/232
f 268/264/236 283/266/238 282/275/247
f 270/267/239 283/266/238 269/265/237
f 271/269/241 284/268/240 270/267/239
f 271/269/241 286/272/244 285/270/242
f 272/271/243 287/274/246 286/272/244
f 268/264/236 281/263/235 267/262/234
f 274/259/231 287/274/246 273/273/245
f 260/277/249 277/306/278 304/278/250
f 278/280/252 305/288/260 306/281/253
f 260/277/249 297/279/251 298/283/255
f 261/284/256 298/283/255 299/285/257
f 263/287/259 300/289/261 305/288/260
f 262/286/258 299/285/257 300/289/261
f 279/282/254 306/281/253 301/290/262
f 253/292/264 292/294/266 254/295/267
f 254/295/267 293/296/268 255/297/269
f 255/297/269 294/298/270 256/301/273
f 264/291/263 301/290/262 302/299/271
f 256/301/273 295/302/274 257/305/277
f 265/300/272 302/299/271 303/303/275
f 257/305/277 296/207/179 258/210/182
f 253/292/264 303/303/275 291/293/265
f 243/230/202 304/278/250 250/231/203
f 244/236/208 297/279/251 243/230/202
f 245/238/210 298/283/255 244/236/208
f 246/241/213 299/285/257 245/238/210
f 251/240/212 300/289/261 246/241/213
f 252/234/206 305/288/260 251/240/212
f 248/252/224 301/290/262 247/243/215
f 248/252/224 303/303/275 302/299/271
f 237/246/218 303/303/275 249/256/228
f 238/245/217 291/293/265 237/246/218
f 293/296/268 238/245/217 239/248/220
f 294/298/270 239/248/220 240/250/222
f 295/302/274 240/250/222 241/254/226
f 296/207/179 241/254/226 242/153/125
f 280/161/133 227/215/187 226/108/80
f 281/263/235 228/227/199 227/215/187
f 282/275/247 229/217/189 228/227/199
f 283/266/238 230/220/192 229/217/189
f 284/268/240 231/222/194 230/220/192
f 285/270/242 232/223/195 231/222/194
f 286/272/244 233/225/197 232/223/195
f 287/274/246 234/228/200 233/225/197
f 288/276/248 235/212/184 234/228/200
f 289/261/233 236/110/82 235/212/184
f 124/155/127 250/231/203 148/125/97
f 148/125/97 304/278/250 196/180/152
f 304/278/250 172/209/181 196/180/152
f 247/243/215 306/281/253 252/234/206
f 198/183/155 145/137/109 150/128/100
f 196/180/152 189/179/151 141/126/98
f 189/179/151 190/185/157 142/130/102
f 190/185/157 191/187/159 143/132/104
f 191/187/159 192/190/162 144/136/108
f 192/190/162 197/189/161 149/135/107
f 197/189/161 198/183/155 150/128/100
f 193/192/164 194/201/173 146/146/118
f 194/201/173 195/205/177 147/150/122
f 147/150/122 195/205/177 184/195/167
f 137/141/113 136/140/112 184/195/167
f 137/141/113 185/194/166 186/197/169
f 138/143/115 186/197/169 187/199/171
f 139/145/117 187/199/171 188/203/175
f 140/149/121 188/203/175 296/207/179
f 127/107/79 175/162/134 280/161/133
f 128/122/94 176/176/148 175/162/134
f 129/113/85 177/166/138 176/176/148
f 130/115/87 178/169/141 177/166/138
f 131/117/89 179/171/143 178/169/141
f 132/119/91 180/172/144 179/171/143
f 133/121/93 181/174/146 180/172/144
f 134/123/95 182/177/149 181/174/146
f 135/105/77 183/158/130 182/177/149
f 236/110/82 290/164/136 183/158/130
f 243/230/202 297/279/251 304/278/250
f 244/236/208 298/283/255 297/279/251
f 245/238/210 299/285/257 298/283/255
f 246/241/213 300/289/261 299/285/257
f 251/240/212 305/288/260 300/289/261
f 252/234/206 306/281/253 305/288/260
f 248/252/224 302/299/271 301/290/262
f 248/252/224 249/256/228 303/303/275
f 237/246/218 291/293/265 303/303/275
f 238/245/217 292/294/266 291/293/265
f 293/296/268 292/294/266 238/245/217
f 294/298/270 293/296/268 239/248/220
f 295/302/274 294/298/270 240/250/222
f 296/207/179 295/302/274 241/254/226
f 280/161/133 281/263/235 227/215/187
f 281/263/235 282/275/247 228/227/199
f 282/275/247 283/266/238 229/217/189
f 283/266/238 284/268/240 230/220/192
f 284/268/240 285/270/242 231/222/194
f 285/270/242 286/272/244 232/223/195
f 286/272/244 287/274/246 233/225/197
f 287/274/246 288/276/248 234/228/200
f 288/276/248 289/261/233 235/212/184
f 289/261/233 290/164/136 236/110/82
f 124/155/127 223/258/230 250/231/203
f 148/125/97 250/231/203 304/278/250
f 304/278/250 277/306/278 172/209/181
f 247/243/215 301/290/262 306/281/253
f 198/183/155 193/192/164 145/137/109
